<svg width="1100" height="650" viewBox="0 0 1100 650" xmlns="http://www.w3.org/2000/svg">
  <style>
    .title { font: 700 28px Arial; fill: #111827; }
    .system { fill: #f8fafc; stroke: #1f2937; stroke-width: 2; }
    .usecase { fill: #dcfce7; stroke: #16a34a; stroke-width: 2; }
    .actor { fill: #fee2e2; stroke: #dc2626; stroke-width: 2; }
    .txt { font: 600 18px Arial; fill: #111827; }
    .small { font: 500 15px Arial; fill: #374151; }
    .line { stroke: #374151; stroke-width: 2.2; }
  </style>
  <text x="30" y="42" class="title">PhysicsLens Use-Case Diagram</text>

  <rect x="230" y="80" width="830" height="520" class="system" rx="18"/>
  <text x="260" y="115" class="txt">PhysicsLens System</text>

  <ellipse cx="540" cy="180" rx="175" ry="45" class="usecase"/>
  <text x="420" y="187" class="txt">Submit physics question</text>

  <ellipse cx="540" cy="280" rx="175" ry="45" class="usecase"/>
  <text x="438" y="287" class="txt">Upload question image</text>

  <ellipse cx="540" cy="380" rx="190" ry="45" class="usecase"/>
  <text x="390" y="387" class="txt">Generate Free Body Diagram</text>

  <ellipse cx="540" cy="490" rx="175" ry="45" class="usecase"/>
  <text x="420" y="497" class="txt">Export/Share diagram</text>

  <circle cx="95" cy="200" r="34" class="actor"/>
  <line x1="95" y1="234" x2="95" y2="330" class="line"/>
  <line x1="45" y1="265" x2="145" y2="265" class="line"/>
  <line x1="95" y1="330" x2="55" y2="390" class="line"/>
  <line x1="95" y1="330" x2="135" y2="390" class="line"/>
  <text x="25" y="430" class="txt">Student</text>

  <circle cx="95" cy="505" r="34" class="actor"/>
  <line x1="95" y1="539" x2="95" y2="610" class="line"/>
  <line x1="45" y1="568" x2="145" y2="568" class="line"/>
  <line x1="95" y1="610" x2="55" y2="640" class="line"/>
  <line x1="95" y1="610" x2="135" y2="640" class="line"/>
  <text x="18" y="486" class="txt">Teacher</text>

  <line x1="130" y1="250" x2="365" y2="180" class="line"/>
  <line x1="130" y1="270" x2="365" y2="280" class="line"/>
  <line x1="130" y1="290" x2="350" y2="380" class="line"/>
  <line x1="130" y1="560" x2="365" y2="490" class="line"/>

  <rect x="800" y="170" width="220" height="220" class="actor" rx="14"/>
  <text x="835" y="210" class="txt">Gemini API</text>
  <text x="830" y="240" class="small">Parses text &amp; image</text>
  <text x="830" y="265" class="small">into physics schema</text>

  <line x1="715" y1="180" x2="800" y2="220" class="line"/>
  <line x1="715" y1="280" x2="800" y2="280" class="line"/>
</svg>
